<!-- Copyright (c) Tabler Icons by Paweł Kuna, licensed under MIT License. -->
<svg xmlns="http://www.w3.org/2000/svg" fill="none" stroke="currentColor" stroke-linecap="round" stroke-linejoin="round" stroke-width="2" class="icon icon-tabler icon-tabler-cash" viewBox="0 0 24 24" id="icon" style="stroke-width: var(--stroke, 2);"><path stroke="none" d="M0 0h24v24H0z"/><path d="M7 11a2 2 0 0 1 2-2h10a2 2 0 0 1 2 2v6a2 2 0 0 1-2 2H9a2 2 0 0 1-2-2z"/><path d="M12 14a2 2 0 1 0 4 0 2 2 0 1 0-4 0M17 9V7a2 2 0 0 0-2-2H5a2 2 0 0 0-2 2v6a2 2 0 0 0 2 2h2"/></svg>