<?xml version="1.0" encoding="UTF-8"?>
<!DOCTYPE svg PUBLIC "-//W3C//DTD SVG 1.1//EN" "http://www.w3.org/Graphics/SVG/1.1/DTD/svg11.dtd">
<svg xmlns="http://www.w3.org/2000/svg" version="1.1" width="882px" height="155px" style="shape-rendering:geometricPrecision; text-rendering:geometricPrecision; image-rendering:optimizeQuality; fill-rule:evenodd; clip-rule:evenodd" xmlns:xlink="http://www.w3.org/1999/xlink">
<g><path style="opacity:0.946" fill="#fefffe" d="M 684.5,2.5 C 690.833,2.5 697.167,2.5 703.5,2.5C 704.488,7.59361 707.655,9.92694 713,9.5C 718.005,9.92074 721.171,7.75407 722.5,3C 728.491,2.50051 734.491,2.33385 740.5,2.5C 741.084,14.0813 735.751,21.2479 724.5,24C 712.455,26.7082 701.122,25.0415 690.5,19C 686.463,14.2528 684.463,8.75283 684.5,2.5 Z"/></g>
<g><path style="opacity:0.953" fill="#fefffe" d="M 49.5,32.5 C 69.6537,30.7047 85.8204,37.7047 98,53.5C 103.604,65.6807 104.938,78.3474 102,91.5C 97.0973,106.069 87.2639,115.569 72.5,120C 55.3757,124.318 39.0424,122.318 23.5,114C 13.5634,106.627 7.89669,96.7933 6.5,84.5C 15.5,84.5 24.5,84.5 33.5,84.5C 36.5969,94.994 43.7636,100.327 55,100.5C 63.5962,100.205 70.2629,96.5378 75,89.5C 75.4828,88.552 75.6495,87.552 75.5,86.5C 66.8333,86.5 58.1667,86.5 49.5,86.5C 49.5,80.8333 49.5,75.1667 49.5,69.5C 58.5062,69.6664 67.5062,69.4998 76.5,69C 72.3996,59.439 65.0663,54.6056 54.5,54.5C 43.4462,54.8283 36.4462,60.1616 33.5,70.5C 24.5,70.5 15.5,70.5 6.5,70.5C 8.52196,54.6421 16.8553,43.4754 31.5,37C 37.4789,34.8385 43.4789,33.3385 49.5,32.5 Z"/></g>
<g><path style="opacity:0.958" fill="#fefffe" d="M 461.5,154.5 C 452.833,154.5 444.167,154.5 435.5,154.5C 435.5,114.5 435.5,74.5 435.5,34.5C 444.167,34.5 452.833,34.5 461.5,34.5C 461.334,38.8461 461.501,43.1794 462,47.5C 470.69,36.2623 482.19,31.4289 496.5,33C 521.393,37.2437 533.726,52.077 533.5,77.5C 533.354,105.145 519.521,120.145 492,122.5C 480.338,122.396 470.338,118.396 462,110.5C 461.5,125.163 461.333,139.83 461.5,154.5 Z M 479.5,55.5 C 501.188,55.0129 510.021,65.3462 506,86.5C 498.921,98.1567 488.754,101.99 475.5,98C 461.998,91.1691 458.165,80.6691 464,66.5C 467.746,60.7203 472.913,57.0536 479.5,55.5 Z"/></g>
<g><path style="opacity:0.953" fill="#fefffe" d="M 592.5,32.5 C 610.846,30.7781 626.346,36.4447 639,49.5C 645.957,60.1067 648.79,71.7734 647.5,84.5C 623.833,84.5 600.167,84.5 576.5,84.5C 579.151,96.2748 586.651,102.275 599,102.5C 606.364,102.161 612.53,99.3282 617.5,94C 626.827,93.5002 636.161,93.3335 645.5,93.5C 640.59,109.664 629.59,118.831 612.5,121C 592.075,125.271 574.241,120.438 559,106.5C 546.743,87.7339 546.41,68.7339 558,49.5C 567.534,39.6489 579.034,33.9823 592.5,32.5 Z M 595.5,52.5 C 604.534,51.7699 612.034,54.7699 618,61.5C 618.931,63.4595 619.764,65.4595 620.5,67.5C 605.845,68.6662 591.178,68.8328 576.5,68C 579.789,59.0313 586.123,53.8646 595.5,52.5 Z"/></g>
<g><path style="opacity:0.967" fill="#fefffe" d="M 122.5,34.5 C 152.833,34.5 183.167,34.5 213.5,34.5C 213.5,63.1667 213.5,91.8333 213.5,120.5C 205.167,120.5 196.833,120.5 188.5,120.5C 188.5,99.1667 188.5,77.8333 188.5,56.5C 175.167,56.5 161.833,56.5 148.5,56.5C 148.5,77.8333 148.5,99.1667 148.5,120.5C 139.833,120.5 131.167,120.5 122.5,120.5C 122.5,91.8333 122.5,63.1667 122.5,34.5 Z"/></g>
<g><path style="opacity:0.974" fill="#fefffe" d="M 247.5,34.5 C 272.167,34.5 296.833,34.5 321.5,34.5C 321.5,63.1667 321.5,91.8333 321.5,120.5C 313.167,120.5 304.833,120.5 296.5,120.5C 296.5,99.1667 296.5,77.8333 296.5,56.5C 287.5,56.5 278.5,56.5 269.5,56.5C 268.292,73.7949 265.458,90.7949 261,107.5C 256.985,116.164 250.151,120.997 240.5,122C 235.715,122.652 231.049,122.152 226.5,120.5C 225.503,113.197 225.169,105.863 225.5,98.5C 228.518,98.6646 231.518,98.498 234.5,98C 236.815,96.8906 238.315,95.0573 239,92.5C 242.325,73.2321 245.158,53.8988 247.5,34.5 Z"/></g>
<g><path style="opacity:0.961" fill="#fefffe" d="M 334.5,34.5 C 364.167,34.5 393.833,34.5 423.5,34.5C 423.5,41.8333 423.5,49.1667 423.5,56.5C 412.833,56.5 402.167,56.5 391.5,56.5C 391.5,77.8333 391.5,99.1667 391.5,120.5C 382.833,120.5 374.167,120.5 365.5,120.5C 365.5,99.1667 365.5,77.8333 365.5,56.5C 355.167,56.5 344.833,56.5 334.5,56.5C 334.5,49.1667 334.5,41.8333 334.5,34.5 Z"/></g>
<g><path style="opacity:0.951" fill="#fefffe" d="M 666.5,34.5 C 675.167,34.5 683.833,34.5 692.5,34.5C 692.603,53.8688 692.436,73.2021 692,92.5C 693.139,89.4167 694.472,86.4167 696,83.5C 706.874,67.589 717.374,51.4224 727.5,35C 738.161,34.5002 748.828,34.3335 759.5,34.5C 759.5,63.1667 759.5,91.8333 759.5,120.5C 750.833,120.5 742.167,120.5 733.5,120.5C 733.411,101.137 733.578,81.8034 734,62.5C 732.803,65.0891 731.803,67.7558 731,70.5C 720.042,86.9144 709.209,103.414 698.5,120C 687.839,120.5 677.172,120.667 666.5,120.5C 666.5,91.8333 666.5,63.1667 666.5,34.5 Z"/></g>
<g><path style="opacity:0.973" fill="#fefffe" d="M 792.5,34.5 C 817.167,34.5 841.833,34.5 866.5,34.5C 866.5,56.1667 866.5,77.8333 866.5,99.5C 870.5,99.5 874.5,99.5 878.5,99.5C 878.5,112.833 878.5,126.167 878.5,139.5C 870.167,139.5 861.833,139.5 853.5,139.5C 853.5,133.167 853.5,126.833 853.5,120.5C 834.5,120.5 815.5,120.5 796.5,120.5C 796.5,126.833 796.5,133.167 796.5,139.5C 788.167,139.5 779.833,139.5 771.5,139.5C 771.5,126.167 771.5,112.833 771.5,99.5C 778.301,101.282 782.801,98.9489 785,92.5C 788.156,73.2532 790.656,53.9199 792.5,34.5 Z M 815.5,55.5 C 824.167,55.5 832.833,55.5 841.5,55.5C 841.5,70.1667 841.5,84.8333 841.5,99.5C 830.162,99.6665 818.828,99.4999 807.5,99C 809.053,96.3451 810.22,93.5117 811,90.5C 812.747,78.8566 814.247,67.1899 815.5,55.5 Z"/></g>
</svg>
