<?xml version="1.0" standalone="no"?>
<!DOCTYPE svg PUBLIC "-//W3C//DTD SVG 20010904//EN"
 "http://www.w3.org/TR/2001/REC-SVG-20010904/DTD/svg10.dtd">
<svg version="1.0" xmlns="http://www.w3.org/2000/svg"
 width="882.000000pt" height="155.000000pt" viewBox="0 0 882.000000 155.000000"
 preserveAspectRatio="xMidYMid meet">

<g transform="translate(0.000000,155.000000) scale(0.100000,-0.100000)"
fill="#000000" stroke="none">
<path d="M6860 1488 c1 -45 32 -110 65 -136 48 -38 127 -55 234 -50 139 6 208
47 236 142 24 78 26 76 -75 76 -73 0 -90 -3 -90 -15 0 -33 -38 -55 -93 -55
-59 0 -97 20 -97 51 0 17 -8 19 -90 19 l-90 0 0 -32z"/>
<path d="M385 1192 c-164 -49 -288 -174 -303 -308 l-5 -44 126 0 c122 0 126 1
132 23 12 39 55 86 98 109 63 34 185 32 247 -2 41 -23 89 -86 90 -117 0 -10
-34 -13 -135 -13 l-135 0 0 -80 0 -80 135 0 c95 0 135 -3 135 -11 0 -7 -21
-33 -48 -59 -55 -56 -109 -75 -194 -67 -81 7 -136 40 -173 104 l-30 52 -124 1
-124 0 5 -44 c16 -138 147 -267 318 -311 96 -25 271 -17 362 17 122 46 208
130 251 246 29 81 29 243 0 325 -43 117 -133 203 -258 249 -84 30 -284 36
-370 10z"/>
<path d="M4791 1191 c-61 -23 -112 -59 -144 -103 l-22 -30 -5 69 -5 68 -122 3
-123 3 0 -601 0 -601 123 3 122 3 3 221 2 221 34 -32 c83 -78 279 -109 411
-65 116 39 215 139 251 253 21 71 29 199 15 272 -25 134 -111 248 -231 304
-76 35 -229 41 -309 12z m178 -227 c34 -17 62 -41 79 -67 24 -36 27 -50 27
-127 0 -79 -3 -90 -29 -128 -85 -124 -312 -123 -394 1 -24 36 -27 50 -27 127
0 77 3 91 27 127 60 90 207 121 317 67z"/>
<path d="M5831 1194 c-180 -48 -298 -179 -320 -352 -31 -247 93 -436 325 -496
80 -21 241 -21 319 -1 91 24 169 63 207 103 50 52 88 113 88 139 0 23 -2 23
-128 23 -118 0 -130 -2 -148 -21 -74 -82 -256 -90 -341 -16 -38 33 -63 76 -63
107 0 20 4 20 349 20 l350 0 6 43 c17 111 -36 257 -124 340 -96 91 -201 127
-366 126 -55 0 -124 -7 -154 -15z m290 -205 c45 -25 89 -79 89 -110 0 -18 -13
-19 -220 -19 -147 0 -220 3 -220 10 0 41 69 114 126 136 59 22 170 13 225 -17z"/>
<path d="M1240 770 l0 -431 123 3 122 3 3 318 2 317 200 0 200 0 0 -320 0
-321 123 3 122 3 3 428 2 427 -450 0 -450 0 0 -430z"/>
<path d="M2480 1192 c0 -49 -73 -549 -84 -575 -20 -48 -56 -71 -101 -63 l-35
7 0 -109 c0 -127 -5 -122 115 -122 134 0 214 63 255 199 11 36 29 136 40 221
11 85 22 172 26 193 l6 37 134 0 134 0 0 -320 0 -321 123 3 122 3 3 428 2 427
-370 0 c-203 0 -370 -4 -370 -8z"/>
<path d="M3350 1090 l0 -110 160 0 160 0 0 -320 0 -321 123 3 122 3 3 317 2
317 158 3 157 3 0 105 0 105 -442 3 -443 2 0 -110z"/>
<path d="M6680 770 l0 -430 148 0 c129 0 151 2 164 18 46 53 328 506 342 550
21 63 37 69 25 10 -4 -24 -8 -164 -9 -311 l0 -268 123 3 122 3 0 425 0 425
-154 0 -155 0 -168 -259 c-92 -143 -173 -275 -179 -295 -19 -59 -32 -62 -22
-6 4 28 8 165 8 305 l0 255 -122 3 -123 3 0 -431z"/>
<path d="M7935 1188 c-2 -7 -18 -130 -35 -273 -17 -143 -36 -277 -42 -298 -15
-50 -38 -68 -93 -74 l-45 -6 0 -193 0 -194 125 0 125 0 0 95 0 95 285 0 285 0
0 -95 0 -95 125 0 125 0 0 195 0 195 -60 0 -60 0 0 330 0 330 -365 0 c-284 0
-367 -3 -370 -12z m485 -418 l0 -230 -187 0 c-172 0 -186 1 -165 15 29 21 47
90 67 255 9 74 18 147 21 163 l6 27 129 0 129 0 0 -230z"/>
</g>
</svg>
