<svg width="24" height="27" viewBox="0 0 24 27" fill="none" xmlns="http://www.w3.org/2000/svg">
<g filter="url(#filter0_d_3_36)">
<path d="M11.29 6.28982L6.29002 11.2898C6.19898 11.3849 6.12761 11.4971 6.08002 11.6198C5.98 11.8633 5.98 12.1364 6.08002 12.3798C6.12761 12.5026 6.19898 12.6147 6.29002 12.7098L11.29 17.7098C11.3833 17.8031 11.4939 17.877 11.6158 17.9275C11.7376 17.9779 11.8682 18.0039 12 18.0039C12.2663 18.0039 12.5217 17.8981 12.71 17.7098C12.8983 17.5215 13.0041 17.2661 13.0041 16.9998C13.0041 16.7335 12.8983 16.4781 12.71 16.2898L9.41002 12.9998L17 12.9998C17.2652 12.9998 17.5196 12.8945 17.7071 12.7069C17.8947 12.5194 18 12.265 18 11.9998C18 11.7346 17.8947 11.4802 17.7071 11.2927C17.5196 11.1052 17.2652 10.9998 17 10.9998L9.41002 10.9998L12.71 7.70981C12.8037 7.61685 12.8781 7.50625 12.9289 7.38439C12.9797 7.26253 13.0058 7.13183 13.0058 6.99981C13.0058 6.8678 12.9797 6.7371 12.9289 6.61524C12.8781 6.49338 12.8037 6.38278 12.71 6.28982C12.6171 6.19609 12.5065 6.12169 12.3846 6.07092C12.2627 6.02015 12.132 5.99402 12 5.99402C11.868 5.99402 11.7373 6.02015 11.6154 6.07092C11.4936 6.12169 11.383 6.19609 11.29 6.28982Z" fill="black"/>
</g>
<defs>
<filter id="filter0_d_3_36" x="-4" y="0" width="32" height="32" filterUnits="userSpaceOnUse" color-interpolation-filters="sRGB">
<feFlood flood-opacity="0" result="BackgroundImageFix"/>
<feColorMatrix in="SourceAlpha" type="matrix" values="0 0 0 0 0 0 0 0 0 0 0 0 0 0 0 0 0 0 127 0" result="hardAlpha"/>
<feOffset dy="4"/>
<feGaussianBlur stdDeviation="2"/>
<feComposite in2="hardAlpha" operator="out"/>
<feColorMatrix type="matrix" values="0 0 0 0 0 0 0 0 0 0 0 0 0 0 0 0 0 0 0.25 0"/>
<feBlend mode="normal" in2="BackgroundImageFix" result="effect1_dropShadow_3_36"/>
<feBlend mode="normal" in="SourceGraphic" in2="effect1_dropShadow_3_36" result="shape"/>
</filter>
</defs>
</svg>
